<mxfile host="app.diagrams.net" agent="Mozilla/5.0 (Windows NT 10.0; Win64; x64) AppleWebKit/537.36 (KHTML, like Gecko) Chrome/139.0.0.0 Safari/537.36" version="28.1.1">
  <diagram name="Page-1" id="dHxBOoUN2r86jojypaYV">
    <mxGraphModel dx="3443" dy="2513" grid="1" gridSize="10" guides="1" tooltips="1" connect="1" arrows="1" fold="1" page="1" pageScale="1" pageWidth="850" pageHeight="1100" math="0" shadow="0">
      <root>
        <mxCell id="0" />
        <mxCell id="1" parent="0" />
        <mxCell id="DwnvcKN-tC0KNOS77lnr-2" value="&lt;img src=&quot;data:image/png;base64,iVBORw0KGgoAAAANSUhEUgAAAMgAAACUCAMAAADhypYgAAAAe1BMVEUoKCgZGRn///8YGBgpKSkmJiYlJSUbGxsnJycXFxcdHR0qKiocHBwfHx8aGhoeHh4jIyMAAADt7e2qqqoSEhIvLy8MDAz5+fnz8/Pj4+PW1tajo6PFxcW3t7d3d3fc3NxUVFSLi4s+Pj6WlpZISEhhYWF/f39ubm42NjYcT/e+AAASu0lEQVR4nM1d56KbOgyGsglLiQ/ZOdk57/+E1wNsATY447TXP1oVvsgIbEvWcJ3cdxw/d2njVJW4XunQFiSu6+WU8EN6z0tn7GZByYxRoef+v3ClMy5I3ADdLkOnz/Cf46ggDJmz+8Yv4uE340XGN/MvcVQQJ46dvIiiglNVQYmYtpBfooTDqdRnN6OWCqPIAkffYJZlXhZSKoiyt/mN4EqnSsuyrELaGJUyqsrppZxfKiXFbnIqTOW1cVwZ1cBb+1eBf/E8v3GcUyWel1SO7zeU7/th4Xn0S1KqcimVUsIP2M3caSl+bQw3q+ijnx+n7W6322zoH9vL48qleY3fFC6kj09HWMVGXUXHGhWJDrqIzh4+JCu+cPh4bgmKXRvBhTX83Pfr+Wq5/NO05XI1X+8PVL5i9jS/adxQEP9tQRI6lA6bP4a2eQBQPn9NEC/z2+UiZUuDWu0EQ8eEI7V3XZikEG1xrdLKs+Rn2W/o8KmSp7Q1k6shwgxfQlTJqUyPy+rgth8Xg7X9LSdW/Gz7TXOuR2ZCjzCKfqCkZGKzF5A067Qn13MPredDnFvDcbGcloPOmMWxrmZT/Gz79QyaPbfUsAMcOKdvGzFYW1++SDjBz7ZfodmnTBTH2lSA497qczRtdwN3hJ9tv440UWjLE9o4VVGi9CkRJy0VMipjN0OPUsWsvdbFxfBYPyEG+ygPIGZ+tv2Ka6lTuVTBV0zpU+skcitOUDsldRjFLIKSWwQMlgctVcZ9XAIn7efYbPaLxX6jXY6XF6hM/Gz7ba/x5TcRy2+i0SNefz339es5ge3gOef7x4zq8lqYKD+H/XwAWUAQa/nZ9usZ9chLiikk0Ft0l/PFmT59widPRA0JtyLUZtnOe59tD6X3OYXY/yLSapZAX1rNmGGLmxV5VwcuNxcqRVG4GOf7swTgsll1v0lZD/jZ9otwIbPb0RwpKieIw4wSGRqDQWs1y7FK7WeEq6KuHN+XHIKgGOAolUDdW6IXCRngLPvFOKcyaHZqPw+pUqd1ywgueMCstldI8nKIE1QO1y2eLMtLXelw0/12KLr80k+e00HscYra8kxzYvs5ZDdTbjVL+5ldkzg44NGyPlREj2v5QfLAH2V1h5kWN9Uvxn1As3twxI+1O1MrakITEzjv8Ei8kb+h2aecAHWFF6wFyWycBTXBP9p/le4HnA94aPndoVVOf+IQ7uiRthCMDQXFzwW8PpxIYsCND60SDS1mGGdVQJug6BLAidIJKMUs85zei5nVnOUhJQUVBw2OXJFhsihyE67PLyFIkvW1NOFs+en1iCfXaW90PffodhBp9N25jA24Ib/6B82TrWvE2fF7W7PXV7Xyfh+Jb6uJ6V28SCyv+b/dsxfINJkf4DmnAl629+C/K4iHh5YnhxZfLgSlYVg2pkIdogmShCacnh+p0dL1lT/R7xBH9+x0+gQ5VfWRmEjUJGCzJ2C2gaAq4d3js4ySKaNC/oPAQTbv/KvOTDgDv8RRKn4BmX2/Ghz2/TZ7drVOJ2KdNuydKS4ENThO4BpxBn4hnOTPV0By636HuDcVInqQObziZYc5ehG2mv0pbzxyKOnfDH8LoDZ+BwjMOBO/CA5q7Qb7foc44Y2P2znCHd/cVnbEGOS7TXaT6p+4GatOLMYqVX5n+UKXMIIz88tArt7zL2LbrwaXO9IH33jjA+HtTnNKBMzbLaiwhQlK+MjgJKfIAnIjboRfoCyVFR1bdv3q+LXeeDGqBNV6u4Xm9FoNy63mlhLrOVIiRxjBmfn52RGpEtt+NTihR5RC9J7R7BVII2OeJe4LXvvYCSo5OneQfE6zPyWId5U2xqL2Xgk/xE5cyq/6fa3fE4S2qvXNcYoTyh/GfWQx6XjGMkbVD/k2DzCCG+VXyl3AnDGx6VfHLxR6hI01V0wUD78AtbyJ4HBBcYKiys9Fc/2YmnGj/NxaThI6232bfrX80gmF6DQKB8W7pYZ1lX2y4sarATfOr77Kt7FVgoz1+/E4O9rkfZ+rJzWxxJGzmmi9L/KOZp9NxNk7No9afXc/1QhulB9R+6t9bdfvWJxdKMcmpC38YV3NyaLcQsOWTnOt6Ahixo3zS5AgENj0q+VH9+xRlkViz84paiyHaZZlZcy38bQJq5ndlJS4pgTZz5IR3Ci/CgsSWfWr46f3xhv2zknrFW+0KfoiX2QEN8bP7whi1++n9+wOHlrkpXg8xfUE+bA3fiCxNk4xKgiOZ4zxq86bkS9izY8K4haFW7WBILdymM+8KNqIEKXayFHResXZNUqhfe76SiIjbpxffpXmwRYim361/CqHG8G5mDTMHGYEtZmbuRU2l7KS30xbimX9pMoJvzxmgRE3yi8lR8nkAlb9avkZ9+w+Xqc9V5c35cJdKuVbasaN84ObNA/utW/Tr5bfe5pdhXFP5auaXW371w/ylmafCisY491u8qPmaRqb4+Jj/Dzllt985Vb9avm9FWfP1MZqmTrPxcVbHEnlpn0Hzltx9jbdrNnqzijhycQur0320iWAVbCVT3EDc6LYCL9Z8mg5UJvRtexXw+89JzY80D61eEUh+sqhtDrU2T/a6oYJqNgIkPIFQSoiGay96jfj7IM4RScDAblRtlAacUZ+PopbUdvXtl8NLtRZv9RqzrjPWFAljwgpK7RoqSqFm/Kv/ZDYhDPyi36kJlreSGjbrwbHNDvzxitzmKFDaT+HXVtZaFgeB+NcKzS29pCacCZ+2DG2Bte6Xx2OaXYZDOWanQUWfccfxLvFTo0vF04bgPSxF/vGVh0DTstvVt+wD9t9ot8B7t3wdAzySejCRZ7T7GGNooiQfCQ3flSQYY66ZOjDRT3LAhLXgNPxi3GE+gTFM/0OcGzPTltOreGCU9SqdxvFX7QUu8l/zK3mzGmu8btBokbH/ACeCTfkFxBlc/6Zk+S5fvu4vF214liuWszbT1cFHsfm80js8Pnsbii6Y25xNcoX+L4lRlyfX1HfUObH3Xu23z7u3Ti7R3C4fHMkJlyPXwxHlB24+6pG9vafirNPaOzsgZKWvq9QTGlixm8GVyTH/FY7T/fbxU2YKFyHTpgKQY6zGddnGEsZbPj5cMUZRduk0OOmBFE4rTceWc2MSmfSapZ2duorXIUH15/1gYVndTjFL4Y7zqzdBbUeN95vB0cFaZR+1GTWyDg29+mFzSVuBwQiliep1m8GR/xYyy3UWpzkB8j8Z6IfiR430W8HNx5nH/hgXa0PtoBbJxF2fYM6MVSp+WGe3DpJjdQi8Kd8xPp+e77ftzS7wGE3BG/7Yw7E9wcKrMzJ7NhNrF0dYPaZqjffGal6M2jY/pup+mnYy8Xjh5A8FmqL2UZ0iNesWKlXzbA8ge5NW/bb0excEJ6UygXhVW8M6EUN1VSfcQ3bUk28W+IcuPTSrJe7y+GaiCoxzy1YNvb5cNl1QX/mFyh1/Gz7lbjS4YVjVVNClnMK1ZIhKtdcQ1R3IRKjZrPfng7H2+14PB5O230vdZnJca+rUM/Ptt9e1ZtyPjC7uOMEMDsVOrikvulqR1bzNWvf84EQtH0/ssDEz7ZfVfX2epy9i0vItT9wJtruXATWXvunM+heZ5jlib7yQt/oNCfB5AM+IYh4fFZQyb+IL1LyvMgXeapu+4k5w5ZKHR0uhspYttdvmxqSKX62/YqhJVPOJZV368tQProuRx3jcgL3b4uvsvy+QxRM87PtF1W9mfbsjoP3zm6bzTLYO7fXcij7hRWDttpcCLAduAU/235/oZ69gp/TfqTaar2/z4CUz3rtf9Ebb8L5FSQ3gyzr/eVWASme9tr/qjfejCMAwfFw2a/RIFt976l2/CFF9YrX3sIbHzUVPQG1TtiePQ5CmZ3KrGZVfRbJyhpOjeOqApLgfL4eD4fD43E4Xq8/XzmpE2qZv8RvAmesemvm1jCRuFd9ZsaxV0aSvMxSZnHVpKpCR7Pzs+Y3jvuleva/j9N7UaTE0wz/Jzi/jbOLcysaKhT+MJ5iw31k7IQIHu/mo9aTMXCJ46OWLiaxE3CfeSyp5m4WibMnGNXHyYrP5/tFuKbqrWMYKwu5kpT51IgyzzPSnE/xSqvdamCZW/XbxY1XvU2WCM34IRXslIrLdvFC255Otyt9C3Ui6tTfKE16Q7PnVPVB8tjuNp1jKp5qK7ph2ey2D/o2SG7Z74ua3ciQrqrVabdavSZBpy1X89295pW9Ni9QL4hVQWWS8pvUeEt40W3IPAnH3QdkQNLsbpCE4Vi/ftitjlO4kao3HhFMs6bSTNScBU31WUSy8+nJMnybtj791NlIv6LCTfd8Exl0od4rXsP1NGGqv9rm9ysd44Z+B9748J0MupjA2f6Miufb9+lMcksn9ljCwLDqDbn32T4mh8eTToZn2+6Q1IN+bcIK0h3EvsjMF5+uaA4ZwntnpjiS2WJ44sGH23yRQ9Tt128F8fXPFw7i7BHKTm293SpDIIWzyb2wmr/SDMy+r+DgflmsLeg8S//5NCfVqAy1QfWZi1IdUNtsD3S38VL7OT+2ulezfBhqtlz98z2n2XPNURvLLTs2K6G7jYrQ5sUsRTKhVBIwO4hdK8KWiiQlcTU7R+y4HX6aLQvbv58b36kqc8WbycP++UbzHbMtEu2ZcdnwDWq97NnMDyKA264vyz6tJ3MaO3F2fgYdD1UHwpYXVWXKfhbx7jg69+RYL65A4qKH41VqRdFUqRVGfgjH7HtqeS56Knb/VUe2/IZVb41dnPas5jAlX1055osj1APrWtamBVWKLe4hvwEugWNvQdz/ZLb89N543Vlwde/ok/2DkA+cVYdwsxDg0X1Zi7D69Bl0YTeAubrMSPz5vXhC7WnczXILL2v2DlB6PWaoFpW2zY19unfi4gZcQeDWWY3vowkIE3F2TVVZGmLuu5/asayOmz2Lc7POUSN/CHg2/EKnyQmirf0sjSOyPe2OUQTwLNy7BS/QGuLEGXeOWFb9xp35LK7uHKg0h8q34DeVr8X1A90L4pe0gHxmcRqsZdXbEFfUnaNGdhB/rOqtc6bOvqYW8q+eGlt0Drla3evw/Tg7l7g+o+3HnuT+SAbCZ06NJTkaAt/XxO50WdqaqjdHhLRlHFtQFbawvglp4919XFulRn8hqtRex1VRrtau5bYuJvmJqrd2z95kADcVKI39nMJNmQ6rI1HVZ11chmrTwgBXqb2AK+GoRvP6xlKKx/nJ02X5nt1zh/XsLknQB7mTyTp1Sjbe87dw+EiibR74E/wsNDtO/dnTH/wlLztBp6jNb8mL3niUM5gkKiF2ffT8TpzCskrtJRzOAtsGwQS/sPHBN1VvRSGr3lpvN1FVaX8utaw+i+MeTlapFZ0qtddxLkopnl9zZ5SfQ+eIruotVFVlnhqrm2udtnVoWR+nr1J7B5eg/M07meAnM+i6cXY5Gx0nk9yoKSpnWeMBR7jO3v4zOHRG3yZJxvlNOrHzK1ZM0aQz2dbpbIPDivhav3AGHQLiU44W8MG4uA3OQzbXBd6Ls8+U2Tu/FR+Mi1vh4Kh6h2gqzu6hrW6THcSHLl2H/Yqosopv8OSW0xOhIoUr8Bb2czhQY4tUo/wmTjwL0MbwBO7rO7/XcLjO5l57UzvEsa2usqeXX/Xfj5/nP3Ld2oM7xm+i6i1UNVRz0MQp3EG8Wx/PeBmnpugaRvlpT5flGR7cH1YCeiMZ08SBOO+1qeNocSL7O27vfgyHDjFYEjLGr61n50loQnWmTb04y1CrZbH5nztwb3za6uQU4VoNy2Nj7d1P4EplAy+PSTDGrxMMdfxuBp2HJts1U/FuqWG1VWofxLlwloLwavcXq96w3Qbv78VfwHlq+b+wc2xerHrDJ6fCDHnZLR7wM7hCCbKYEoTv2TtVb6UwEIoiUm6gNWODqs9YKo7Eqeozt1+l9iYuUsvmjgti5tfW6vaq3rKU+e6xICmvPgua6rMA42J+dow4r7qpUvsQzsGCpCP8xuPsMyXIjvtgGQyd8z4aj/8Irv8Er8bZVdn8zq6azUZjP4NDgmyUIFZVb9jWmvUFccY6RqbHx3A2gigTxRhn739Yi3i3bVzcEjdDx/oIQcxxdr5q8eVXfJZ2LaBEobZVJ7FqsXW/9YorXFs96xZtre6ncIXSZFuxahn5jXrji7Lx962K+J8oRDeq2ieAcAw35Y0nV5ZXtpwf6w8/oDUuPbL/V2K5+gG7OLvyosg4NrNlfPK13e22XzDi9dBUF3wSl5zZEwTiCYw4qhBZ2hY6gbmpvKTWdcYzuEuWfEl4dhe1PaMo656E3OKaWs3fwKX8CdIJXJNBF9J/U4XJcunC5oy3IBDnRqWt95znrzHPWNqeDNXBCcv8N3Bp47Ufw439X2+OOS7u4Xj3/wL33kk1/yPcq0n+pWXHfw0X/gdu/Ok2MWH+3gAAAABJRU5ErkJggg==&quot; alt=&quot;White User Member Guest Icon PNG Image | Citypng&quot;&gt;" style="text;whiteSpace=wrap;html=1;fillColor=none;" parent="1" vertex="1">
          <mxGeometry x="-480" y="250" width="30" height="40" as="geometry" />
        </mxCell>
        <mxCell id="DwnvcKN-tC0KNOS77lnr-3" value="&lt;img src=&quot;data:image/png;base64,iVBORw0KGgoAAAANSUhEUgAAANMAAACUCAMAAAA+hOw/AAAApVBMVEX/////S0v/jIz/x8cAAAAmJzAhIiz/JCQkJS8NDx3S0tR1dXsdHikZGiX6+vqcnJ/f4OBdXmSxsbQAABHHx8mCgoby8vNwcXO+vsAzNDwFCBlZWV4tLjb/R0cVFiJlZWrp6er/QUH/7u7/gYGQkZRFRUz/rKz/m5v/3Nz/MjL/5eX/Ozv/ZmY8PUUAAAv/paX/ubn/c3P/0tL/WVlPT1UkJCY8PD2XomOJAAAJOUlEQVR4nO2ZC3uivBLHvZCcgAkgNxFtwAu22y3WbTnv9/9oZ8IdxK7t+q70PPk/+2w1QDI/ZjKTxNFISkpKSkpKSkpKSkpKSkpKSkpKSkpKSkpKSkpK6t+Svr23BTfX9vD6fwd12u1e723DjfW0m0wm03tbcVNtJ5me723HLXXKkHYH/d6GfEb6hy54mhT6MPq2AyN+HH8QWNvHkmlyOffpT9Onf8Oyr+v1x2bzeMng065Eupj79OfpdGhM2814/PP90OurpwoJoHqjLyOaTodWwCY/x+OHny+Hc7v0OvJAjz3Yz28Z0ttfMPNTmgLTeLzZ/Dp1r5yaSD25b5sTTaeDy/TbXxsBNX7YvLTf99OkrV37ckU0HWBFPmSOElQ/dm+1L7aPk64a4QnJrtLAMoTQ2/tDATX+OZ5Uzjjtuki7Q3lt2yAaXoYQ2m1KJkgW75P8tT+dIYEK4Ke3JtLbwCpuplPlp2xajR/BSL2HqMh9zy2iQYYeRNJ7Ewp8tTlsT71Mu8P2edrR2xBDLy9RbaqXX71Mk8mpizS84pTrqcME5erh/QLVGdPgilOhl00Xavwwfu/LEpPHLtO9bb+k05mjsmzRS3X4BhlC6PnloQdq/PDw0kPVnlJDTOSZ9Mc+R2UReE7Vir6BZgih6bjXUTnVR9E31Awxqhey/RHYTYEDX0OUer3kp9xXbao6+gabIYSeP2ICV7XLVRV9w1xDlPog+HJXtahO3yD0YMfx40OmzFe7bvQNOEMI6e8fRl9OVSf2w7CLU6HXCyWqHYEV1cCLU66niyWqQ1VH37AzxEic9m+uYKqpTsNdvtaaXoU0rsrVaeAZQujCQraXSiT2b/Hz4eHH9VBAdRp61sv0+vM/V+vH47dAkpKSkpKSOpOpaU5RxTzzj3rSPc1xtMi7f00MFVtxsk/+f5VY+3I/ppEqmdTQ+rN38+eaqUjJSMyYIXvhfa0Xz0hshhAhBBFux9Z9fVUxaWuMWBp9qRN9xinhSkAps22KGN5X70bzff9rnX5dtZ9Sldhu/oI9MMT5TCc2omrow1zyNCPhhNhGeck9MuUzXd1CFdNIS+x5MRM0pH4mDH0FsaSeigZEoFJ+dVVk348JQqhs1JaYL66eE15K8bpptxEgvio+35up0ueYHISCffNuHdKNEuWfvymTRVHgt1uOWClavinTnhHcNtuM//lHZAnL8kOG+N63LEtUdk/8hfbI2a9mef+66btpkqSuH7UHFPckSRzunahsgm4MmOWRP4uzB5o3hoZZPV8zmTCgyBGO5RtrQlPLLxp+J4MhteOKKIpgcA9KMEcI2aIW/wMmmPB3pY/8VLGDMDPB3FMlYBizQEH7xmCelSg2x5RyW4n9wlpR1U3djxWVUhoosRhUt6Az6EBVWFVAaqY9PGHBTa6i2AQhmq0KjNHvZVBk997nKRgDEpRijKkofSZBNNQtAqB5HDhpgBEOjkeoajhIq4CJZipFVLSLW7GVt87FNDUwo6oNlxGHxOS5nBEeBJwgfCwqUYPJwISKh/c8swTswESxrmCCHEHTvszvKdBN9g96izMmwhY+wfSoqCL2nDVD2F7uIaZiBYI0LjzlwSzEx0S0r4CWFoUCmI4G58p6tneTI9T2VbQPcGCv3P1cVQHSOGOiGZO+Z9m7Ff+h4zVMXgrBl5j980/kiOr1m5igOFbpyorE1ygQ9hZDaCvoZZW1i4KH10WS0WJIQbkHgAmpPM4vONCOYnjzeciBwxAt3skZUza2yBFX0BRyjhhxyARmz5q8lffATwjzZfmiQhXRZR1vIcRwfmnOEavepo9IsWYTTHQelaMuMaK4jMuRt+AosC4zfS7vQbjCCyeBGs/2hmW2o7DNBH4ipLRCgxBXGkVAY4jFYlRPYTypmqMUDDMrpiqR6AsmCmN1n0+QmvvzJky6xbK0wjlDydxt1oYzP6nlTB5BtPCwOYqYL+JZc53Gbt0s/KcV15vhY0D+UKPqqxljljvxJkzwMl14hFEMKY5yJfWrh7t+Iqj0jAcm2q1aDdPI3o/ONGM1U9OvvlovwUR/K0yTWzKJtbwbpgkNOEQUO7plBHb9hMvcBpMf46RV/yJYC69GZ2oxNR5wVEgeLSa8NG/KNBJrAs03wgRKDlFmvUyY4FVJ668Jm5tRLQ+YcNLuEXRfprxr00C8rgJdJlrNIB/yyjJdpZVWKbSgCkez9u5sAUrIvZlAUcwRLqpwN/ZqJgtqP6GsFHyiEJqkuNNd81IQzPdnEvWNFDuqy36ywJvrc2XmGUGAuUqWsdB6EEz6HtY2Vg9Tx0809M80ypacBPPQsBzNBDVz+d9h0h3DMLq7FQtWCEYPU2s+EcLd3kEsyBXEr2r3388RunGkQXdZbrF+pqaftAR8EfX1mOBW4bpD3oPSp7qdNvAT/p2fohXF675DUg3WF/PG9zswwfumaXvvqANJsV647KfM1ta6X/cdB+71WXMZN9L//nwa6WCb2t6TaOtqiXDZT8J2GjdHcZQ1n+VMDVthHXczpqvP92Dy4HXLUStejQZMx2putP00gn3Xsbm+m3MizjdF7IV1K+TQmzAlmIXXn1nOAsRolad0LQ0QRcVXq7mGa/tpZEI5VapTBA+M56noAKpb5VsoVegmTNGckfX1J1hRDCkhWFgOFBPNd2FpxKqDJFMRmxxN03zzzE8jC1Okzi3NjEzNCqFe5YMaCuwVYYfpRaYfwh79Jky62NqsfE1z2ud2l6StjrAxsnGcpokKS9ggqZ8LbdjlLOMl88/8BPsuBFsiO1nNV0kAe2+c/yDipTaiLA0XYayqgVvnCP4HTCMNFpOMx4nas/TvU7QPjhS2TiCCVWXRGNlM8yvifMGktL0LhChXGMFiuYeZUmV2M1XgOyz1GFdm3kzFuYlz+NBksqndYmK0YApwycRwfQhgKRziBAeNufo7qtUyO2tax2676HhGLE5sxEGXGafxrJNP/TBBGPb0Sdj41Uq30jV0RpYhvAk3TvMkuohT0mRK0qSRYrxFHOfnFvAAKphgwDpktBBMRKRbTD/E0nzL8rXz3JL9KJo1Z/uhs+cc8VjUbtRN6MwxWw/B31bnnd6qy+JD9UTrlsjxnQsHXFJSUlJSUlJSUlJSUlJSUlJSUlJSUlJSUlJSN9L/AHUl6fvEFEF7AAAAAElFTkSuQmCC&quot; alt=&quot;Open source ML framework Streamlit raises $21m, launches ...&quot;&gt;" style="text;whiteSpace=wrap;html=1;" parent="1" vertex="1">
          <mxGeometry x="130" y="250" width="30" height="40" as="geometry" />
        </mxCell>
        <mxCell id="DwnvcKN-tC0KNOS77lnr-4" value="&lt;img src=&quot;data:image/png;base64,iVBORw0KGgoAAAANSUhEUgAAAMwAAADACAMAAAB/Pny7AAAAwFBMVEX////qTHLqRW0AAADqSnAAAB7n5+kQEzDpPWj+9/j62d9wcHjY2NxLS1ToKFwAABYAACMAACkAAif97/IMEDClpqzf3+HrVnmCg4339/j75uoQEBdMTVzxlKf74ebrX3/1s8Dtaof4z9ccHDMAABrvgpn3wszMzM/wiZ/ucowAABHueJLpM2LzqrnzorO7u8A8PEjnF1SOjpdCQ1QoKDwOECRiYWxDQklZWWAwMEBNTU4uLi4bHCJDQkE5ODYjIyUPdyg2AAAFaklEQVR4nO2aaUPiSBCG6U5IAkEITUIIKyRB5AzHIALOzO78/3+11TlAxUHlWJfd9/liaALWa3UdXTGXAwAAAAAAAAAAAAAAAAAAAAAAAAAAAAAAAAAAAAAAAAAAAAAAAPwvafeCoFcsfLUZ56A5HbMo4v6g89WWnE57yA2VMZUbbnDtzqn5JEU1DM4Y58FXW3MahYHBWKS2JmFZZZwVv9qek2iWSUtLbq9ipLJoenUbrVAoZrTvDWYMEgXFiHG3/cW2fZJC4H4rbzEo8nvJG7V7zqKP7zPP0zTPu5CRH6QYRhTrz+BhKqAwNVj5o2K8kmM+PNw2ZtrFLH2fok8Bz40tnKluWl9qrY+L8RxLyXcr3YqymV3O2HeoUYyo0bC1JeTMmCbvtV2u8g/GjFMRdv5hs8zb3XzpcuYepkdajEm7kJHrlRn346CpUZI2xrUPfU1/LuxHp1/qr4TevT2/mc1iZ++vWih2XnZc0uBo+mLF5aSm1esEY1lwenvfq5VKdfrRd5xZfbu4qOqWKS+kKiXOAl49vtGb0Y0nxlEwDn0/HAbP19oDWvPDVvPZks9V9lJzh8oL567PpJbBnmO0xfpmnqtv5su7p+9mZmUjr4+c+O2VZSuxyLq5Xm9ys838bvn0vXGClELIE9RwZ82EpYvuTiKVEuP+lcFBmcvOjNqzaNjMvUYzR0KZ/bCEbdvCWmZiLL2SiNlYqWdKN3nRnf2UNwqR3xwvxog7xbhbdDN7WlG8psqWa5Ld2Ckzo/W6yPd4maRwozx4o/xrZl7XH6sjRanYuj5aJavO0q4+xRe6Xa3mEjFC1/NCURT6gJ5fHKvFlZWP0i15hhnDxKLet7gRjtc4S0OhQMk3CvY+X+iNVcOf7rslE1P96WilhU7WKmmVXHXplTMzLVFVSjsx1nqmlUxh6+LPI8upzFB8TJHQHlPVYImxMhJ8eTnhfNuwUHyo/HOnFinGHsWxMlsKXcmqimnpQnpL3PVzWzHiJpawsGz7qX+cmCHlo3FiLWUk475JkEDuJ2b3Ipl8aa0dkEJjP8bfFTNK9oy3u8x5fd22LQqQ7qK0E5NPpHprYS+do7RQclVZVsTL5BpKYT794K1nYl1a49Jb7iePk1JMupFyi7xeSfKU1lDIJyvzlrxm9TMx9h9ptrut2nfHiaHCzd3shTxoxWltu98oXUUsXpQJYbv4KTFpgVlYmZjFo12dzzSt31ja1qO2FeNdoZjSjZVGjydbgMb5xLy7zcYnb7PXYpw72x6la7ou1ucTc/kEsC+mqmdiSJf464xiLp6a3/SMkgQ79QJJ+TyTmKOLZiEIDR5ODrrqTTH9NdWUB3kla0/ePKeYnMGPaWeCKOLkqah8aIrxm2zWpSI/MhtPitCryhmzWe53jaZ6sNEsSLVqnPfKB+JIMysiE9PoCiXth03dEqJbsaip/JXVmXx1K8YSx4vZHgEmz9cOHwFkNuCq76vUMx/wjdaYz39lnnma/8gaSId6fSH05c0qraj11XyeNWR0uT5BzKcPZ0WKJCOcdjoTSobq74cyXqnf76c21ulye0b2+s5isXCevd7dKD/zDww6qIAmx+ZJlI1l2jKfDy7/q89Pc5wONHxyTJrjOi6lgaubZEqyUZM8+afbsknlqXyVYnZDQJ4dkmsDzr59ri/415CMZynq1TTq28Or9UwuGZxT7ERpIg/kwPxqxUioF2DlWE2Pjg1vDAauiWY882PTli8fMrlXGjIZRTeeL8WP/9SrfzTbCZP+lBv+/lD26mhPhyo1zmHruh9kZvyH/pkBAAAAAAAAAAAAAAAAAAAAAAAAAAAAAAAAAAAAAAAAAAAAAAAAcBb+BrkXhFzlZfgfAAAAAElFTkSuQmCC&quot; alt=&quot;GitHub - n8n-io/n8n: Fair-code workflow automation platform ...&quot;&gt;" style="text;whiteSpace=wrap;html=1;" parent="1" vertex="1">
          <mxGeometry x="640" y="-160" width="240" height="220" as="geometry" />
        </mxCell>
        <mxCell id="DwnvcKN-tC0KNOS77lnr-6" value="&lt;img src=&quot;data:image/png;base64,iVBORw0KGgoAAAANSUhEUgAAAX8AAACECAMAAABPuNs7AAAAgVBMVEX///8AAADa2tpCQkIaGhqtra38/Pz39/eWlpb19fXs7Oze3t7W1tY3Nzfz8/OSkpLk5OQXFxeAgICCgoIyMjJsbGzQ0NAgICDJycljY2NMTEwNDQ1zc3N5eXm7u7srKyulpaVWVlbBwcFKSkqenp6JiYkkJCS0tLQ9PT1UVFReXl4fgiroAAASaElEQVR4nO1d54KyPLe1gqIiFhRUFHu5/ws8SrKTnUp0mOc748v6NQ59keyeTaNRo0aNGjVq1KhRo0aNGjVq1CCIulk2TvrvHJFPs/HC/7U7+i+h32sWaCeuRwQzcsR98Zv39R9BsGoCxm5HDEbsiO7v3tt/AP6jyZG7HBG10RHb372778e02XyPTq8tHDH4/Vv8ZiRrgc1RUHpELhzQ3Hj/4C6/FyuRzea57IDBRTri8C9u81uRUBKPYzoPOlHJEdT0ae7P9I/7P7nRL8WGSXEQKz37AcGE7NYO2JsY/ptb/UYMdoTCp+Hp7SmxofWILiX96SsEHXZwjc9wJQzuXkLnQP5eW70wL6bS5/WDSqD7O45zDYyUMDh9/Q2OgFUDR1RNFHbqsAPCq8Zn6CA2GycqgGwHbMk+xEz1qfF0/Qd3+pWIqDD3hV82FyAju2Tk11n4VeNdHMQRPyc/bQb9Ck8YOL62QD9EjsR/gw1uboGGreRwSIYRc3EDai9RJ4HOmLndZKphApUfEMSktuWm+BEk59W881K368st7kaFjFoQ9dumFk9IZsyyzGeroYW3EQXOgvx8PKkejG9NAZN06zP1G9MJ4d+Ln+s6DfAR/FSkj3pj7WAYNzW4dPtUYIHHBd5AHQL6COGeiI8W/R2QMX/JJjr6n9hTFyGHM9DgdZ0E+AjBsWBvB/5TeDfwLoMZ/Gfpd413EJBMyhzUp5AKs4HJmzH5XWchP4LCfyoTfXukcbrqyP9mIaKa/59Alj+ewH9n3x30fc/z/CCZjmr+q0dIvNkL6F+B/80CJxaDfK7jv5b/P0GfyPsJJFAQ/w8lqeL1Lgr/HvWYa/vnI/ixSGeLMTzWVbYN2RSAEDW8MOfCrRoCmPneHywO2wMUlphSMH4GL+B0OCStoOEdxQlU4z1Q9RnP7jtUhtIxipM+9ouXt3i8JAqkjv98hm5TB4s078vlKgVGdR3uZ1jo2JzZjmjJ1T8vPP7V/X4bQg2Zc3sF3ElzSGnNVg0t+mcNmSf7MaHiDD/lTx1//gSeLsq8KysA7WkOWtYG6PsIcLRzud9Mp/F9NSuvv93uV2k2m8ZCgqaOQLwLH43+ezcKveeECJ0Suf3gZe94wWKGlHE9A94E86Wa6cfchSemDZa1DngLzPRf5j+x3lssZDSqqxDfwHAJ+vaHgsNj86i2Qt8A+LGjH4cOPGYQ1Vl4Z9DCtWanCqkNawhW9UokR9DEV0VWC0sb10aoI2jZf1WFsy0aPL3XcTg30ED/rdzZcsOpyun0/RhWLS9Cmp7fVHXC7wa1WC7ViQs6AeZ1IsYB/T1hq2Sl4zuIaF16nYh3QETKOycVRgygkrr2wRxAjf9jldYKtaiOFZ7ya9Gr1PgkGJBzrmsLtByb3/CWaDypVsDleGiNdU+JHviD7WmWZbNxvgjkjZ68O3UpWo0aZbhrqIrGj3SM3TEvmaEE1/qRC4ust5tHvBXeAI1D11mAcqxUUZEUJhHPo/e7YpOll7mUsSo3j9TNxVjYS6WMNcyg/KMBHdHKzhv9nexl9onDQAmH8BF2IGr+nUHlDyrahE4yxH/yx4jz9RpVJo6KY3xI3ONeQfta/riCimqULmGFzS+bCHyppzV/3i6GrWHSjSFbdnmN7xCi1/gUNAJU699yzGTp4bEB/hz/ffp65ic0ur0DlS/rAxr/qFarT/9Tr4QvB029p/w/rI4kYEtaxlJs2k+IOfRa687kE1/3QitJd+/ch9cfHPLxbDY7n0/XRVDiukXbrthvNzx0D3/yddPw846Pb0jhnmGF+0WjR0Ni9aQ+60GGSkWhkt35Jvyk9xBreduzqzkfQXTSEems7ivkt/uLK5+CERf2BCER+Vm/ERajfKRfUEEEV95oHArmJlz805WUr21OGPRGYt9LOiTixDAL6Kzk5QKQwf6DSX8oGUHBMv+06txe5iWRTQYrhmjmy/OvRbzcZWgv2hfCMaQanXXkE6RaQiMwAKDzAcTQi2YVfw0wdtQIEFGtTK0u4ukw6sVsP9LvRA3yh9RV3rtUQIS6Cl4Edekfe7+079wTEciu3R+MOPlLeTYDio5ubRDDL6lyeVHOGCnyXOoCDcj/5g4XH+ybJZioQh08vuadvuEICh8vf7H5HPB1lMdrF8/xxgBmPRvxxbA7ymoSRqdLHybGpA2xLFTYUVBjNAAJ9if5DyC0dpZeQGFlMNvHo1oPZWpesQt5yi927sP/ZJb8wguQXjHj/yjzv/yL/HN5Kmm7gnBEb1HfjNcEvDSwvNwRahkdEmrqgr/J6HabL5V/P8SppPIP/1j+TY8bypalhK3Mf2PfhO6IBLHKf0BPZW/cWkCifxd3W0H/iTA6nI/izBBFEDvwW/iHiJvE/1iaE/229D5eoZ+dnv/yVcAtgeJdLhzQT8TuK0JX42/jH1p9ypZ+Mc+naL+duE/rJY/2kpoF3soSyqzqtODtpEqrId5BaOrB+G9T/lvwj86f5B8WPsr6t/WSxKiK6rVEbx1Kx8n2J6wlKGuDiMPaO62HHWRoF1we9mX8Q7nUStlSjGW8nro1ROtaEt2c4f6cvaALL/bemyI92DdD7/nL+KfmhEZjEip7ej92WASO1P7QsJDVbgCh9X6WRa5oSTIS7V/GP62A0EUriTDf6Ag6rA0vjX1Fw9YHBQ3/nY2zDd+P39938R/S+LEu1DUgubBRV47/D1OzkKF9aKwCCPFqDRoHqNEWUygf8O8pJTLS5rJ/OG1644ocdLiutSsW4YNIu9l1GAVBGIZBMEhOsMYl1V6CqtZUt40AfbbHstcLKELBAoHv8e+1tqfZJt5k03GeaEVd6xxnXS4tg8PpnGWz01a1IFrd3jTLzrpNCP7wudsmjjfTcXdRuhD0JE9vASyc8HxDk0mn05kgs32qF/FUuFgWdPC+HZ2Sbk2oC+MRTK83+A8PGX+AJyb3rkIdaeN7p2dfZOwB1/sDfsCoh2qg7l1DeCvYxkImaZlaEkkvzKTRJWGobfJDDjFMMNoX/WIWxty0L82RHfj14FW5859resjueiJz4P0ULp4vJSOQ6jvNxfNoP3cZnsTekOQ2bV1MfH0BIn4IpfqqQGacg75aUyEi4mcpz9Hw8QtOsCv/V2HoIwg5CzByX/H31lzZl770lmYYjuXx5+fqTuTcZnZDwq7Ncw+6dzlQuTsvLNqFTiljTS8X6sfydfLcUYMvO7jx71kyOzjQAsGX5aARaQbvqDjlQLNFsTD62kblBTRZDAoqLEoaLQXb00ujpGkax9m5O7SrdirejdOOf2XS4WtVQ9b/+0Lv0Yl/D3vPCmb8AYD/SSs09lOL1HmhPmFgbZhtGowBiRe0ywfiq/mt72RWUYJMBihL1zolzBEriXB6O/+6blIIOdsRBsNkMNPvepJaAWOg+ab2axYwMTwqLR+pdLk6TSiYBjcfTR2XNa98INMx5MJ/0hSwa7dFZTBhewL/F1MybheY03Qxp03sxbaet29iImOuH+GU/3uV/B/s/A+ZNrF+3QrAlRoV2w78oynWnE+T4DVtg+0GqTFmeMHrnZBRsZpdt9vuDNscY/Jj8hhfk0OeCaqAKdYAnXs+XoQvaRF10W0YxMH/YPxzk9KpQosPZTraHPhHVmuKcpIHjTst6IkLmPWBkpzbJ/RqAQ7dsjA7Gv5nbhn6aOq0tZOdfrfxN9bfmfjnA9pp0WvAdl+Rm3TgPzNcIuDjeqzs+nxXyDVoid+8wQ+DPpPcobfgsa8lrMWKnAGXe1oNQPXvrcriydzOLjcMnVad9dnuI2f+GRtyToNT96BbEP/iCBX6oYrnQYOdzi5ehpxLt88nkraXKo1wVVq5NNbfCYDbGU71gh4zQJdkkLwx/tVmsMxGh8QS51/uXI3soZv4GtG3QehoZ+NfWfTMuwRrtR01735j/bXJ5+BP7LRAxmPxlDUZnwr/LP/L+Kc6Y656lazYAzxOfjfy+FzwLw/Jj8IHdU7/Q+f8SpXjTF1ctE8X28n6APSVGksg+BM7vXSPS1Bn/gkdF01wj80VlX9575Api5GsOnkEBVwwr5gtd40YYSq4o308+noqbBZAy6GMIo0H/91a1X/CfyO65toFAUqtBON/Ke/qMZmu2Gl8kQp3gVvdPNFZkcwWm2ifjr4eJ1PcDXSKa6YiwZvj/zP+TWAjdzmU7kbVFXvYpGpO5luVdGhuIPt5bb2h6lJ3qemmKXj4x03+s2edGPTvW/yzWkV5/Kv9irgVpWxiY+LH/MNiucoEEJTnG9vP8NCMU4can6nBHXHhf8Q/81OV8W/hX/VkGP/lLkwZ/1QB7KqqXaX0Lo2xHW495y7n4/5X22D/2/kPg0FrkWyvee+cxXumU3+Pfy+MBkO4Yrpn8QoD/xCOcV+uZQX9Kq2lAI775NavOwCYxQIukzv/ftSdPtqj3VJTaK3wr94wi2iqJM8Nm/xWnu3bc+0VDfyzwGm5KHMAy1SYZTt3LPfGfRD466K1kK78R7lQwvgP+G+db/JlyvnnAip3ocOOPtBv+QwJr37YuUSduLqgA8SN/+isFrJjdCrnfxDb1zOY+G/s6Q5zBzZKwLixmDa89HbtYHR5iq/vxP/BNhJ/zv9I3ZRrPgbixj8tswL77ieA2Jotsch7GjTz8jPyAGKHWgjO/u+/5N+35jvt/EMPh/nPkwDAjTWcwQ2guPyKXPzDl60c+Nd+S2vdmbf3+1/iHycF+BWXzysyL9rIPzxiBU3IPDqV9rZ88pDfYXnYlWe1gaBy/gdNhNum190mw4j0NGD2v8L/tCGD8a9aJjL/QoryOD1dD0krCosrMnPDyD+VsKsqOhDDxLeFFnhEudx9QbVC4K2V8o8EXHN/ENulRb/CP4oRNuOFKMbL/C/m4FTSgw+ChurTIHBZWVL3gq0fVqdeyj/KnOTy+RT+WTREvWOWKyjlnw//ieLTs/ibiX94nmpSwNB92GZaouqEkgnQ4kbkFO6vlH/FYkVg82lSIf/o411qSollHAz8w2ytqAUoPKBNAKEvR67tGgCVlDGLtpR/Zt/eVYOOedMK/6oz7sw/L5zTlHOzuWHgHw6uqFsbFCtZvWlknzxsmhrtd1T/aeDftwWH2cFV8s/Xcmoyqmw2GvgvLxd/D1QAbWziLET6yhJ4HSIXllu0ZfzzUhyNFcw4rZJ/btCpDiWf6wb+gS8zDe+BBuAM9V4U2EA3zpQhqqRHrWV+wj+vJn2H/1zZJPLPFb6a0WPi38T/poSFdwFj275GBBerGmbAApcMInVSxn/IOFaVO9cnVfLPK/oU64f3JzTx31Ye8Ieg1Nr1iVBdk2pyD57gUWLjpFT/suDYUda/qHBH4V8dBc78swZEiv7FroiefyjvqEr8M+u+xJ0Q6lUvSoe/rVAMfsebzfzTnCKvRBYngLAkoEr+Qz6bxQkQ8lyriX8qLStsFk+fsqy2X6zX3k0PjGNveBJr6cU4aSn/SLnk6LjBBp+zSv5RqdYSvwBx8ZY1/15B7A3QNT2PiFAumF+34/N4fM7u8roh6YvCKv9STh0vl7gfiriPHyRkWq5BVCj+r3q/7H3lyiYW3Sb8o4hWMy0axHt+dNgXvy9wd/r6E8p/9fUnpcnFULuoRwPJjGEOjco/1SPCSopRmmWbFAjbwKB+h39VlDL+qdkiZNra8SbbPGAQnGA4/X/jv9EXBIIJO9kyMPMP/cf6E8O5mscArgn8s3elyss3+B8aky+bhhP/N+3Gj3B15b/hl6wSeuGumNTl/DeuhkzgpcVCNcty/lmYUOWflVGA2W5K+BwDxr++/pBGP5fVyX9q2TgVFJWlCddyAXkDeTSK/uU1NNoEzKuVLDMIof6KyR/VWWCbVD+OKVb2arQJmKK3CwgipcCxgE9nTuX2Z+60c9izaIF1qksQQ4ULc9lZB0FUwK9b/Pt4bYYpB/02mU2qksxMZNU3Yq+GB3xyjdAruuWBbjCImGrDb/x6rs2AA92accKv/p48GHzsCjD2sAgZyKtxl6THA8S+IdwL8VrNx49hXmkWB8FZdmh6LuT1q0dii4JoMkQY6IS0JkzeQYuOA/cVHV4yPcqDZ5TKTVc4BkT6op75JIMntQMZoo/WLB9diEeRAc+TfdciyNfRvesr+RKLrkybkHoTZoaXxHwo7dg3cXwyWTKDh0VFZWWfa6QT2mFFMULY2p4fo1fV2HqyW2V5onxkCSPo7Y/C5OhfH+30qjxgsMinj9UqPW8H6HRJenyc0MttZavVWV8Js5gdVz09MUl2vMte+3M2Jadsv7rHvQP+YEI3bafP2fd/3FkJZg0fVBMAAAAASUVORK5CYII=&quot; alt=&quot;Ollama with Sugoi LLM 14B/32B&quot;&gt;" style="text;whiteSpace=wrap;html=1;" parent="1" vertex="1">
          <mxGeometry x="1500" y="240" width="30" height="40" as="geometry" />
        </mxCell>
        <mxCell id="DwnvcKN-tC0KNOS77lnr-7" value="" style="endArrow=classic;startArrow=classic;html=1;rounded=0;" parent="1" edge="1">
          <mxGeometry width="50" height="50" relative="1" as="geometry">
            <mxPoint x="-270" y="329" as="sourcePoint" />
            <mxPoint x="120" y="329" as="targetPoint" />
          </mxGeometry>
        </mxCell>
        <mxCell id="DwnvcKN-tC0KNOS77lnr-8" style="edgeStyle=orthogonalEdgeStyle;rounded=0;orthogonalLoop=1;jettySize=auto;html=1;exitX=0.75;exitY=1;exitDx=0;exitDy=0;" parent="1" source="DwnvcKN-tC0KNOS77lnr-2" target="DwnvcKN-tC0KNOS77lnr-2" edge="1">
          <mxGeometry relative="1" as="geometry" />
        </mxCell>
        <mxCell id="DwnvcKN-tC0KNOS77lnr-10" value="&lt;img src=&quot;data:image/png;base64,iVBORw0KGgoAAAANSUhEUgAAAXYAAACHCAMAAAA1OYJfAAAAbFBMVEX///8AlogFmIoAkIH6/f0Aj4AAk4Tv+fi/3toTnpGdzcbo9fTC3tqGxb90vbXR6uiOycJPraPl8/I/qJyx2dTa7uzJ5eKm1M9rubDG4t+Mx8AxopZasae23Nh9v7eo1dBUq6E2p5ttu7JhtaspxJQsAAAJ4ElEQVR4nO2c4ZqiOgyGgdIKuqLIgI6I7oz3f48HmhbakoI7O7junnx/5hmppb6UNEkDQUAikUgkEolEIpFIJBKJRCKRSCQSiUQikUgkEolEIpFIJBKJRCKRSCQSiUQikUgkEolEIpH+UZW3a54KxkRaZMfyT4/m/6HdNRUiDMOoVftHiOiz+tNj+ufVFExI4oPCkNXHPz2uBRRL/elRdKpq5jBX5EX6Nvvl8rr16Xp4wuC13uQp/Xfortln97xO2/nUzrA6P+2TDdJsL7t5X26cWvGJo9AleJZjYzOVcOET333L+Mpkf5qdnivB2jOy2neYcSbHFCp1jXm6H02MqGvG17896jntIuGDDrammf5+wkKfvgP7Kg3bVT6cxb6GYXDPdF9F6AgZuzi+Qyo/Xhx749r08YTfT3awMPYN73qKZrHrSZzjhz3Y2y+wrdXwOdiPbBp6J3ad6uE1sN/0KDju+WrsgwUcZvzHymj4FOyPUG+5bye6UNhTRNHzsKf97L2jxxX24n7Ksuyane5FxPWVEmnsdLQw9uQh6i33CU9SYV8pz8zSNwzxMewJH6wG6j4BdmZ4KPFhXbOxZXoC9k2I2HXHUCju/nnbY19ojA9hzwebIdBbU2H/YX/6pmwNH/zkJ2D/GFN3zXOUwsf+3/0K2EvZqAYDL7C2OPZgkwL3tP9keez7secYRg6++ASXRmS+Xl4B+6mDx44xLJGYRfRgDzZquvfWZ3HsmIkRZ8tEB1WqL43wmZmHsc8be6zFI9gVuzjYCnvqDvJhV/6+6J21xbFnSJgUHqwFcTs49aHHIX4Ee1wdP3+2YXmU1j+vCU5wczvlXYvikh0ro4nCflgNGsXNe6Zs+oHZU3eQF3sMi3Ef3S6NfYV4MeGnMdmDsjYvjG+6z2J/r7kMzGHBa0PObJxv2OVdE2jQBu286INNwB5yU+6Fg567Xu9dH+KC/Fof9uADBqb/XRr7GZnsrBywB0c7fg1xh3ge+21w7pSvwW5OkysXdhOe6EMb99vSmlhq5GSXw6tkazb2If3YM7jaevxLY08RNybvqQeb3L0sAic7i303BsftfEM+CnR5390D2IsOnErGSGpiHFb7sV8Bu75SC2PfITamjSY09WS83go8CTyLfcXAtjDOmJ7Uw2xuddJRi7Qg0tgMq+I8duU9wj97hl2YB7Brw7cw9i3iPdZ6DyD+RBLwHisziz0OefTzekzeq/fmmmrEA5hKWe96X5WHskq2BeOn/qjGbiaUbajSSmhQG9k/G80QP/ZCWBdqYewF4j2+AfZgl2K54DBCO5r3ZKx92SP8SuOHXeATI7+8ug3GX3kyK2/OYQUXLTZ7E6O0ux+7Ey8ti70dxghrqn7T3pMLRlaq4NfDpR3c1IX+PxYjq2Nq1m8/ygW1vz0gOzPKQ3qxw/CHBNqy2MuxaRf7brIHh49+gXMboGgU9mQ3kufUEKD0iyaYZizEkZrFDpx6hzPGF1Uv9lrYVmlZ7M3IjMCNHFQfudKldrgLNA+psDNX3Le/FtuL6ju3Jr+rOewVc64aRKpuYsaHXS/n/c26LPbbCHs7QWzD2bguJp7b821z+EnKmKb33WFFxdeNYB47BEjn4YMDuO5OaIBjX13UnBlujmWxr0fYW8ttrlrxaeTMhGg67Nexny1SYGSwgF5qBns8jo9kEtg9O4a93IbaoR26fzL21j20cmDIxvZ3YX9jpvUFmxNGnuKOGeywoFqnegMf0l5UAbtYl7Ds/LidT1EfGpubj0/GznZGXiDeYoUzk9j5SN5VUn5jyCSr6BxfOeaw15bBkoqdnKKU2tQT/dJjlG4wszbiubY9/DColx9oDcekbTdThEpmq/jQrLdZdl03Bxe7DohYuka80GnskHhw0haZHQBJeSsH2tNaLtey2BMHrGiGdMzR47dPejKTfntyj7rMQJddZDysQwv7kCtj4j4qc5nGLgm7u9YVEql6sLfjOdtdP9VvV6ES5MB8+9qTfvsE9iZyE4w29uDYHxc8WtsYJrE7vqgWuO6WwUewdxnmYu12/NQotZ3IinqDbWuDvhalxnckmWVjD8p6uDBMbM2+JrE3cG734zUEvuZwtW3XC4+I6su5QQb9zJyMznkEcYYXoUIjtKM57DqrK4S1ljmbs281G8CHhjWbxA4FA+klt1XAGczssvJkjtKTKQ/OymPomRnIdrGcyIFp7F/KQG6ZmmYf52Py/t4ct3AdRnviu1NfLxTyz/7jKeyb/oraUr2YrpQ/Febomfl2sZHh6dlf+ht9Md8OMWPI7sZG3g+GYW/RrFNtj3jv/k1hX/vrAGUnxvr8KtjN3SW5hRqUxWTp79d2lyBDYv+MxIO91ZvOx/cRzBT2dIza1JCWfCHsxl5qt4Ua3Pxr6ZSNmcEuNxHM3x/4Z7vUWpl+XaigvHoMu9otREvrQ2dQL4N9qBzoajG6pNAk9a9VDsCvdYrOJ7EHpZqqqsMVFhCBICxK94hOTjr3dbAPdTKiCpLxroc72b9UJ7MCV84+OI1dddhvVHCkBylVA4ZW30OGzHDdXwe7rgoLi27ezFCPhO+JyW/HDmUvLDH/wyrlG7ggeAoNdgqHSON1sOt0WLidWUsl9a/VQK4waHPYZfKgz0/Bf0he4oIleLUgkBpuhRfCrkOmmbVUNvlqxS/kX2xDMIcd1gOdgL976ELho6/yXqeT9f+vhB2tb0f15fp2WNtCq/zOwe5+s7Lz5eCcs9GDa86WLH7i/j57Jezf+zQHfhTWttT0ZRzsdd6Yt1IF87QPMVXAJTT3OMklS7iPfAs9bNEOZ3kp7N/47NJkjqMrPtomu7LLiLzfwChrIDETLLzsk6o7nJwL7jooqn6I19n6uN7eIy6fGoW9wPFNoBWrlKO6oq+FvdsU+z3qc9irvqqLQe5PVeT12GUDfbRPlBllB30NpVCJNJlfh/B3It8MRXZcXZcXw/7Ic6nTY5jLQB7RvO+AHUusCGtndT/qIVDrrhP+WoLbQVuhV8M+nXXs3BxfvZbS7DZHE2IZK6ax5yOoghd2b1vuHC+V6fbWG3SqoTGs5i+H/fffOSCtw8Tu0uosBusBG3ucp/qXlduIDxvKnbX5GF3o95QL/dRBe/wWBxd51sln4vdg1GCRWIERm5lCrSLZ7gnYJ9+wMfPCgVYrKIGYfixptz7ldZqmdXE5bddNZYeW5S3L66h78UWaZ2/odd7t70X3/TyDLSE46eS7hmKzjfpnvlIT2s3NtW+S530y7lMXv6nJSzOu5f217/+dGr89KaO3Jz1F8l1hoXxX2JXeFUYikUgkEolEIpFIJBKJRCKRSCQSiUQikUgkEolEIpFIJBKJRCKRSCQSiUQikUgkEolEIpH+fv0HoQR5nz1pI+QAAAAASUVORK5CYII=&quot; alt=&quot;FastAPI&quot;&gt;" style="text;whiteSpace=wrap;html=1;" parent="1" vertex="1">
          <mxGeometry x="540" y="250" width="30" height="40" as="geometry" />
        </mxCell>
        <mxCell id="DwnvcKN-tC0KNOS77lnr-11" value="" style="endArrow=classic;startArrow=classic;html=1;rounded=0;" parent="1" edge="1">
          <mxGeometry width="50" height="50" relative="1" as="geometry">
            <mxPoint x="920" y="320.41176470588243" as="sourcePoint" />
            <mxPoint x="1500" y="320" as="targetPoint" />
            <Array as="points" />
          </mxGeometry>
        </mxCell>
        <mxCell id="DwnvcKN-tC0KNOS77lnr-12" value="" style="endArrow=classic;startArrow=classic;html=1;rounded=0;entryX=0;entryY=0.75;entryDx=0;entryDy=0;" parent="1" target="DwnvcKN-tC0KNOS77lnr-19" edge="1">
          <mxGeometry width="50" height="50" relative="1" as="geometry">
            <mxPoint x="200" y="246.20000000000002" as="sourcePoint" />
            <mxPoint x="550.4000000000001" y="-46.200000000000095" as="targetPoint" />
          </mxGeometry>
        </mxCell>
        <mxCell id="DwnvcKN-tC0KNOS77lnr-13" value="" style="endArrow=classic;startArrow=classic;html=1;rounded=0;" parent="1" target="DwnvcKN-tC0KNOS77lnr-4" edge="1">
          <mxGeometry width="50" height="50" relative="1" as="geometry">
            <mxPoint x="760" y="250" as="sourcePoint" />
            <mxPoint x="910.4000000000001" y="80" as="targetPoint" />
          </mxGeometry>
        </mxCell>
        <mxCell id="DwnvcKN-tC0KNOS77lnr-17" value="&lt;img src=&quot;data:image/png;base64,iVBORw0KGgoAAAANSUhEUgAAAOEAAADhCAMAAAAJbSJIAAAAdVBMVEX///8ll+4fle4AkewNk+37/v8Akuy82/jE4vnj8Pzt9v1Uqu/S6fvz+f4AkO3I4vl3ufKj0fYnm+47ou+hzfVfrvBJpu84oe+t1Pfc7PvQ5/pmtPHp9P0fmO3A3vmQxfSAvvOYyfWz1/dksfF8u/Jwt/KIwvORkUBJAAAM/klEQVR4nO1dCduiKhRWQEtLKy23sr3+/08c2VQQq69cah7emXufhgh5Wc6BA+doGBoaGhoaGhoaGhoaGhoaGhoaGhoaGhoaGhoaP4tkXYczdnW6R+ZDVMGfjV2f7rGAZg1AM/xBaIa/D83w96EZ/j40w9+HxDAauz7dwwEIAFT8R/4Pj2PXpwd4juOk82yxyOap8x9uLX4eVh0tKUWS57qe53plys/AC4Ma8kORFAkpV8Nw45x8jmnKaew6/w2Ob2IJYrI/cZFim6D6A3K8AzZxJipJAfoxWeoImsAMDWOHhJTg1/Vhk6HzMUNviIq/DJmhZaRAZGgZe/Q3hrN4MUTVX0ST4VxiuDMmf2O4hsC/fU8/7jpn6KKiABR/zcLgaR/G3h8ZbklugLJhCDxF56M05QV+C8XnstQypn+Rpcvy5+A7BmrX2sIF5RAA8Vcs8GRJ86nGT2p50W0oFo/g+LUjCQQxQyEFYYZinoertqg+i+F0KBqPcL8el1uK5fU2KVJOx+PxRlNuy9u52FgclsfjlSYUXz1S564gpvAy93+DKJRMOBm7Qp3jJE7iEWw6zqSOeZGSTSbnFUWRsqMpE5qQFJ+wyF8IKS5LqeCW5W9FhiacD80w9+0KEFmG60Obn3/atl+0OU5hScUHP8b7wyIzKlMuLKWEvy3Lj8TlgomG3i57gVAD5L20P8wa2iKzhZRN+YBAJGiCcGCG1lsMm/qwjaFUPv6uNPSMwhB41TKyZOhI61JDsT9ctDKUCJrgeL2EcW4GQbi573dDM0Sp1BuKHXDcXHk39sTVKI1lhibCmyli5QEIoijpeeMo96GK4fO9hdfOUJY0MgDMkyEZIuc5w2YfFvJ20iZpjpK2UABu+uzGJsP5W304EWVPxfAsTms1xeOADFMVQ0mWug1JY8mcK4bO8z40YZ92qpe0hZjyJ23xfCLSEsdl2NQWTYZt2kLcH6oBexU1ijWNL9T1VY3fNg8NK39CsO8dVezzFSZehQbFuhTAekpRV69KwWvOGTYuwSqL7S+LFLtMwb861p6QPJmJfa/FvTRNpxTFJyy23TSdVymWkLJgKbs0XdCUrJEynadp/Qnu40701/0S7B3Z9bGkgdchaoEPOcWDTuEwtJbyShae5HnZ6hJA9JAh7Mk2Za1mURjG7A9GFEZR+c+YpoQR+7JCmSJ9EVcJEftnbNoQPtMU/qEfgm4MgfRsQP52AdD40JoTBn2Z3jYvrDP6B0L3vtaj6QtLxZ5R7JuCQ397w/2IDBGxBqHo1OuR6YgMwfp8nizSvg0Y4zEc6k7DdDSGcD8MQ2kXPyB63SbV4IzVh3CoJehuJHUIwFD3MXbjEDTRcSCChtGwQw/EcLhj/KaVdhCCl8EIGpdR+tAf8FztBStt9xiyC431GOoCpc8r1hkWIzBE2+f16g67ERjCYe9DDa8u0H1QgsZmaIYgH/h66WloYQrPwxKUbPD9Y4RbNAP34aCagmLYVQ3sySr6CM+PvDrEKN57Q24RwYB7ihpmww3Tfg9AWzHcMB3rXrA31DBF0Vh3u+VbkX0h7/9eVwuGUfqjupG8cAvkc4wkZSiGsO3743qXhr13Yl8nvK9i4T+v40cYY7EmYtavOB3Mht8O5/E1ic8A/KG3hCqc+hM2AH2F/48R9TVOUf4djni9ndHAy1e44WH0Ik+BPb6MqbDuniIMh7dZPMKhY4pgfC0o49CpQIXRd3UgQYfnNDD4BiXYxCLvRmnA/JskjAB300E3+sH6a1SEApPg6VXQh0AwTr6ZXwFrnb/NEUD00Nn5W2AlIfz7fMTuZ7O+3c+6w/wYQyTfHn7ArqBnXpLRTE3vIT1FJkRP+xIUMw/m0Sn78smnhpetLzGAEHtCNlxcScdBlIe3JPuZsamENz+frrM4L6RIwYgC2TAIossxmfZ+BXZAeF6aZoviT5bN0533292moaGhoaGhoaGhMRzOs6gzi9hiFn5fkOSJD4Df0X3dhY+A/xVxAuuYge78jy7YFGB/24YqxDt11E2tyN04+9vMNFHXDAe+g/8cmuFfoBmOg+4ZakkzNDTDv0AzHBA1G3wrw1fs9FKe75A01uK0CeM4uqznpH4qhk5yneE8y1X7PYpstY3iOLwcFhXNlj6cRPFRaIsUlx9Gl8NUbtlDGNHIydb8dInCOJpdz39rsd0xp3Ga8IFRcPJUDBczWOZBkTJUs7cOqjzmnddBydDdQFCP/mQlIYI0nieC+U1ow6VvAn9flH9g5eM8aPn6sY91R8L9SmgmjZV3GgmH2wCGTY/rVV6/yACQfWhnmNCzR8RbYRrXywfIv1b1d3FWtDHWpnBRAr4cAMUJ5RsWAM6I92jFMLEbJ4TypTRr48t5IH1XRZOhM2N8+I7j2LhxhfLy9r6L6wfirXyBAL546ShThaKiR9glw1Oj8gV8IYKaGysOhIG5MxSSZs2HDH97kPIWi81vFbl+VSWB4WuO+zw0bjGy8cuNhEsInOGJtzD5FvG2rIcT5QSlYsjlNakPqwHPQ67yiFsAQoDK3wIel92tdTAt38RjHL0WR9HL6dNQfs92lrXbb2ttxRhO2BNguEo9w0uTiDW5vyrLYXfBgXmb4GKyA70/hZYNhgc+4FHOOukIGaNNkrqWk93LCy2OzBDl16mDyz/FaPaaNKUulADey4ntXMohQxm6dEyhvAr8swgooXImsHvS8FYGWbfuOIlc4q4zzGJeOtyyEcIcOmBUDjqLDWMW07tkCOC1kn0vStIp+7Fwkae8okcZbinBmRAYkA4sHs9pR6MR+YIO2ec2xF1YY2gd+YRGAW8vFudavIyZUj95Gg2SMwTojdcJUJcfW7qptII1himpPZBdy6hjIot7eyV8benCoZXtqqxY0ixKaQQrZUAfBiVzo0t5E+d1zvCd9yXMaekrOf0GKoYk/AcVinV4pArUaZBO5tbAOYQh2lm3coDWX1xFQsSgjfwjGqSKjHLG8K1gBLT2Tfdbt9IWdBApvD6I7yUwcSOQOM7twQIIQ7AOShl5qI0HGthPsS4n0T5JkFrGMH/n6gpZuai8/O+IMyQ1AKBZOqOOe4MMUtR6q5kO6FINibeDyaQHinAf1AUZWZzhW641Hii7QQIdvpgh6R+lB+sB8eeGLd3AIPoSA1f48kaIRNelDBqxFWt1yhC9szkh4cqU8e0sk6/aSOAIpXsgCT5OJh+ehiBoHUQSQ1FmMfdG1ASdsnvGEL9O8e8gQcfVHsYB70PSU7bKdSfjveuRurSvMCR/cDGI0JNYVFg+0z58630XRF6RZUcDMWd4bGVI1AgOmLMjorS9BowhgBGtNaw/sfHWhxaG74UjoFJEGZeJPBjLFzrbVHEMyVwl7UMYtEcCpAwBSoyESsW6dn/ch8BPOcO3gkXSWPaq4UUFGa40kXXKl74QdUGUFG0OV5GnYggu+HvmtFHTwBtGXwmbCIAPGBpUUyuEINVweGBMy08ySN1IFein1niVTOOTz1dK0S8zU01zTOdKkFb7hCGpmmqtQCuFBxPZYKs2mztQfkHkLWgsS4TCuDJhC1rEl9nn52LkE4Yrqs4bmoYu9yHZZRNx3lxVsZf5kSE+r2VXQNw9MfXAHQ9ZCz5acn7C0KOrarn6Ho3/TicojYzR0Ij0VRxsglJx0aYRRYbsHQSl/iQnxGbemMU1O80HDNmmQHr3h0ddRvlqjspzaf+RUZMaEy+0FeTQFufj2msy5PHzee6M2ihCcWV1jvPynasfMfTobhpu62vhuL795NUXLU/sPQblnof67KOoJrS8GUQw9oymnSZjW2qmpugmHAX1qX6AAJS2tI8Ycg2FghVrsd2R7a/tcsvNzCgw4t24YKay6r1aqc2E/p1x9E7EjEHUQsPWtuAWAUqA9ilAV55lSs0kvFE+Y2jwTRvMN6f1+jDjPhS1icff3gFgsD2tT7fS96kWj6TcNINoeTrdZ4D101HFsNT8J0YY8N/e16t1Wb7vdsLQ4GYZQLQuX0IKRgUn58nVkhg3en1clR7tQjFE7ykswtyuQ5sx4U2GTe6lta9cv37KsFDCTWOotO13FMZQEIjmSt6L9SxUhKls3swEzPadE1UVIpWkcc/7Nxz4E9m7BwayavOaBueNLN8z2XMPIdpOG9XZE53cPDWVfwtq8t2tLatW+/M772DbXSpDMLbm3hWKbV/zWCsGU6xQ0dYB1N4Wgewt6zZiV5QX5hbR/KVlwjqZNY6okmoGe08RY7zar9K3PIjTQwygDYu/ZrRqWULvtwF1/EH5tmUN6q6jHBdT5IkP5bD0Ygj9xi+82PftWqq3jgAp3obBTRxDE9v3Y2adnqZv+4C72eScTNKHx77O9Jyc984jk5CXFsWcM2EkeZNE0e7WRD4DdLNzsirKbz43OfNn7r7QB1xDQ0NDQ0NDQ0NDQ0NDQ0NDQ0NDQ0NDQ0PjP8Q/D2vJ20M4TbcAAAAASUVORK5CYII=&quot; alt=&quot;Docker full logo transparent PNG - StickPNG&quot;&gt;" style="text;whiteSpace=wrap;html=1;" parent="1" vertex="1">
          <mxGeometry x="110" y="520" width="30" as="geometry" />
        </mxCell>
        <mxCell id="DwnvcKN-tC0KNOS77lnr-18" style="edgeStyle=orthogonalEdgeStyle;rounded=0;orthogonalLoop=1;jettySize=auto;html=1;exitX=0.5;exitY=1;exitDx=0;exitDy=0;" parent="1" source="DwnvcKN-tC0KNOS77lnr-15" target="DwnvcKN-tC0KNOS77lnr-15" edge="1">
          <mxGeometry relative="1" as="geometry" />
        </mxCell>
        <mxCell id="DwnvcKN-tC0KNOS77lnr-19" value="" style="rounded=0;whiteSpace=wrap;html=1;fillColor=none;" parent="1" vertex="1">
          <mxGeometry x="570" y="-470" width="640" height="540" as="geometry" />
        </mxCell>
        <mxCell id="DwnvcKN-tC0KNOS77lnr-20" value="&lt;img src=&quot;data:image/png;base64,iVBORw0KGgoAAAANSUhEUgAAAOEAAADhCAMAAAAJbSJIAAAAdVBMVEX///8ll+4fle4AkewNk+37/v8Akuy82/jE4vnj8Pzt9v1Uqu/S6fvz+f4AkO3I4vl3ufKj0fYnm+47ou+hzfVfrvBJpu84oe+t1Pfc7PvQ5/pmtPHp9P0fmO3A3vmQxfSAvvOYyfWz1/dksfF8u/Jwt/KIwvORkUBJAAAM/klEQVR4nO1dCduiKhRWQEtLKy23sr3+/08c2VQQq69cah7emXufhgh5Wc6BA+doGBoaGhoaGhoaGhoaGhoaGhoaGhoaGhoaGhoaP4tkXYczdnW6R+ZDVMGfjV2f7rGAZg1AM/xBaIa/D83w96EZ/j40w9+HxDAauz7dwwEIAFT8R/4Pj2PXpwd4juOk82yxyOap8x9uLX4eVh0tKUWS57qe53plys/AC4Ma8kORFAkpV8Nw45x8jmnKaew6/w2Ob2IJYrI/cZFim6D6A3K8AzZxJipJAfoxWeoImsAMDWOHhJTg1/Vhk6HzMUNviIq/DJmhZaRAZGgZe/Q3hrN4MUTVX0ST4VxiuDMmf2O4hsC/fU8/7jpn6KKiABR/zcLgaR/G3h8ZbklugLJhCDxF56M05QV+C8XnstQypn+Rpcvy5+A7BmrX2sIF5RAA8Vcs8GRJ86nGT2p50W0oFo/g+LUjCQQxQyEFYYZinoertqg+i+F0KBqPcL8el1uK5fU2KVJOx+PxRlNuy9u52FgclsfjlSYUXz1S564gpvAy93+DKJRMOBm7Qp3jJE7iEWw6zqSOeZGSTSbnFUWRsqMpE5qQFJ+wyF8IKS5LqeCW5W9FhiacD80w9+0KEFmG60Obn3/atl+0OU5hScUHP8b7wyIzKlMuLKWEvy3Lj8TlgomG3i57gVAD5L20P8wa2iKzhZRN+YBAJGiCcGCG1lsMm/qwjaFUPv6uNPSMwhB41TKyZOhI61JDsT9ctDKUCJrgeL2EcW4GQbi573dDM0Sp1BuKHXDcXHk39sTVKI1lhibCmyli5QEIoijpeeMo96GK4fO9hdfOUJY0MgDMkyEZIuc5w2YfFvJ20iZpjpK2UABu+uzGJsP5W304EWVPxfAsTms1xeOADFMVQ0mWug1JY8mcK4bO8z40YZ92qpe0hZjyJ23xfCLSEsdl2NQWTYZt2kLcH6oBexU1ijWNL9T1VY3fNg8NK39CsO8dVezzFSZehQbFuhTAekpRV69KwWvOGTYuwSqL7S+LFLtMwb861p6QPJmJfa/FvTRNpxTFJyy23TSdVymWkLJgKbs0XdCUrJEynadp/Qnu40701/0S7B3Z9bGkgdchaoEPOcWDTuEwtJbyShae5HnZ6hJA9JAh7Mk2Za1mURjG7A9GFEZR+c+YpoQR+7JCmSJ9EVcJEftnbNoQPtMU/qEfgm4MgfRsQP52AdD40JoTBn2Z3jYvrDP6B0L3vtaj6QtLxZ5R7JuCQ397w/2IDBGxBqHo1OuR6YgMwfp8nizSvg0Y4zEc6k7DdDSGcD8MQ2kXPyB63SbV4IzVh3CoJehuJHUIwFD3MXbjEDTRcSCChtGwQw/EcLhj/KaVdhCCl8EIGpdR+tAf8FztBStt9xiyC431GOoCpc8r1hkWIzBE2+f16g67ERjCYe9DDa8u0H1QgsZmaIYgH/h66WloYQrPwxKUbPD9Y4RbNAP34aCagmLYVQ3sySr6CM+PvDrEKN57Q24RwYB7ihpmww3Tfg9AWzHcMB3rXrA31DBF0Vh3u+VbkX0h7/9eVwuGUfqjupG8cAvkc4wkZSiGsO3743qXhr13Yl8nvK9i4T+v40cYY7EmYtavOB3Mht8O5/E1ic8A/KG3hCqc+hM2AH2F/48R9TVOUf4djni9ndHAy1e44WH0Ik+BPb6MqbDuniIMh7dZPMKhY4pgfC0o49CpQIXRd3UgQYfnNDD4BiXYxCLvRmnA/JskjAB300E3+sH6a1SEApPg6VXQh0AwTr6ZXwFrnb/NEUD00Nn5W2AlIfz7fMTuZ7O+3c+6w/wYQyTfHn7ArqBnXpLRTE3vIT1FJkRP+xIUMw/m0Sn78smnhpetLzGAEHtCNlxcScdBlIe3JPuZsamENz+frrM4L6RIwYgC2TAIossxmfZ+BXZAeF6aZoviT5bN0533292moaGhoaGhoaGhMRzOs6gzi9hiFn5fkOSJD4Df0X3dhY+A/xVxAuuYge78jy7YFGB/24YqxDt11E2tyN04+9vMNFHXDAe+g/8cmuFfoBmOg+4ZakkzNDTDv0AzHBA1G3wrw1fs9FKe75A01uK0CeM4uqznpH4qhk5yneE8y1X7PYpstY3iOLwcFhXNlj6cRPFRaIsUlx9Gl8NUbtlDGNHIydb8dInCOJpdz39rsd0xp3Ga8IFRcPJUDBczWOZBkTJUs7cOqjzmnddBydDdQFCP/mQlIYI0nieC+U1ow6VvAn9flH9g5eM8aPn6sY91R8L9SmgmjZV3GgmH2wCGTY/rVV6/yACQfWhnmNCzR8RbYRrXywfIv1b1d3FWtDHWpnBRAr4cAMUJ5RsWAM6I92jFMLEbJ4TypTRr48t5IH1XRZOhM2N8+I7j2LhxhfLy9r6L6wfirXyBAL546ShThaKiR9glw1Oj8gV8IYKaGysOhIG5MxSSZs2HDH97kPIWi81vFbl+VSWB4WuO+zw0bjGy8cuNhEsInOGJtzD5FvG2rIcT5QSlYsjlNakPqwHPQ67yiFsAQoDK3wIel92tdTAt38RjHL0WR9HL6dNQfs92lrXbb2ttxRhO2BNguEo9w0uTiDW5vyrLYXfBgXmb4GKyA70/hZYNhgc+4FHOOukIGaNNkrqWk93LCy2OzBDl16mDyz/FaPaaNKUulADey4ntXMohQxm6dEyhvAr8swgooXImsHvS8FYGWbfuOIlc4q4zzGJeOtyyEcIcOmBUDjqLDWMW07tkCOC1kn0vStIp+7Fwkae8okcZbinBmRAYkA4sHs9pR6MR+YIO2ec2xF1YY2gd+YRGAW8vFudavIyZUj95Gg2SMwTojdcJUJcfW7qptII1himpPZBdy6hjIot7eyV8benCoZXtqqxY0ixKaQQrZUAfBiVzo0t5E+d1zvCd9yXMaekrOf0GKoYk/AcVinV4pArUaZBO5tbAOYQh2lm3coDWX1xFQsSgjfwjGqSKjHLG8K1gBLT2Tfdbt9IWdBApvD6I7yUwcSOQOM7twQIIQ7AOShl5qI0HGthPsS4n0T5JkFrGMH/n6gpZuai8/O+IMyQ1AKBZOqOOe4MMUtR6q5kO6FINibeDyaQHinAf1AUZWZzhW641Hii7QQIdvpgh6R+lB+sB8eeGLd3AIPoSA1f48kaIRNelDBqxFWt1yhC9szkh4cqU8e0sk6/aSOAIpXsgCT5OJh+ehiBoHUQSQ1FmMfdG1ASdsnvGEL9O8e8gQcfVHsYB70PSU7bKdSfjveuRurSvMCR/cDGI0JNYVFg+0z58630XRF6RZUcDMWd4bGVI1AgOmLMjorS9BowhgBGtNaw/sfHWhxaG74UjoFJEGZeJPBjLFzrbVHEMyVwl7UMYtEcCpAwBSoyESsW6dn/ch8BPOcO3gkXSWPaq4UUFGa40kXXKl74QdUGUFG0OV5GnYggu+HvmtFHTwBtGXwmbCIAPGBpUUyuEINVweGBMy08ySN1IFein1niVTOOTz1dK0S8zU01zTOdKkFb7hCGpmmqtQCuFBxPZYKs2mztQfkHkLWgsS4TCuDJhC1rEl9nn52LkE4Yrqs4bmoYu9yHZZRNx3lxVsZf5kSE+r2VXQNw9MfXAHQ9ZCz5acn7C0KOrarn6Ho3/TicojYzR0Ij0VRxsglJx0aYRRYbsHQSl/iQnxGbemMU1O80HDNmmQHr3h0ddRvlqjspzaf+RUZMaEy+0FeTQFufj2msy5PHzee6M2ihCcWV1jvPynasfMfTobhpu62vhuL795NUXLU/sPQblnof67KOoJrS8GUQw9oymnSZjW2qmpugmHAX1qX6AAJS2tI8Ycg2FghVrsd2R7a/tcsvNzCgw4t24YKay6r1aqc2E/p1x9E7EjEHUQsPWtuAWAUqA9ilAV55lSs0kvFE+Y2jwTRvMN6f1+jDjPhS1icff3gFgsD2tT7fS96kWj6TcNINoeTrdZ4D101HFsNT8J0YY8N/e16t1Wb7vdsLQ4GYZQLQuX0IKRgUn58nVkhg3en1clR7tQjFE7ykswtyuQ5sx4U2GTe6lta9cv37KsFDCTWOotO13FMZQEIjmSt6L9SxUhKls3swEzPadE1UVIpWkcc/7Nxz4E9m7BwayavOaBueNLN8z2XMPIdpOG9XZE53cPDWVfwtq8t2tLatW+/M772DbXSpDMLbm3hWKbV/zWCsGU6xQ0dYB1N4Wgewt6zZiV5QX5hbR/KVlwjqZNY6okmoGe08RY7zar9K3PIjTQwygDYu/ZrRqWULvtwF1/EH5tmUN6q6jHBdT5IkP5bD0Ygj9xi+82PftWqq3jgAp3obBTRxDE9v3Y2adnqZv+4C72eScTNKHx77O9Jyc984jk5CXFsWcM2EkeZNE0e7WRD4DdLNzsirKbz43OfNn7r7QB1xDQ0NDQ0NDQ0NDQ0NDQ0NDQ0NDQ0NDQ0PjP8Q/D2vJ20M4TbcAAAAASUVORK5CYII=&quot; alt=&quot;Docker full logo transparent PNG - StickPNG&quot;&gt;" style="text;whiteSpace=wrap;html=1;" parent="1" vertex="1">
          <mxGeometry x="943.46" y="-440" width="30" as="geometry" />
        </mxCell>
        <mxCell id="DwnvcKN-tC0KNOS77lnr-22" value="&lt;font style=&quot;font-size: 36px;&quot;&gt;(HTTP POST /chat)&lt;/font&gt;" style="text;whiteSpace=wrap;html=1;rotation=-40;" parent="1" vertex="1">
          <mxGeometry x="270" y="-20" width="340" height="40" as="geometry" />
        </mxCell>
        <mxCell id="DwnvcKN-tC0KNOS77lnr-23" value="&lt;font style=&quot;font-size: 36px;&quot;&gt;Analysis&lt;/font&gt;" style="text;whiteSpace=wrap;html=1;rotation=-40;" parent="1" vertex="1">
          <mxGeometry x="240" y="130" width="216.92" height="40" as="geometry" />
        </mxCell>
        <mxCell id="DwnvcKN-tC0KNOS77lnr-24" value="&lt;font style=&quot;font-size: 36px;&quot;&gt;(validates &amp;amp; forwards)&lt;/font&gt;" style="text;whiteSpace=wrap;html=1;rotation=0;" parent="1" vertex="1">
          <mxGeometry x="770" y="80" width="376.92" height="40" as="geometry" />
        </mxCell>
        <mxCell id="DwnvcKN-tC0KNOS77lnr-26" value="&lt;font style=&quot;font-size: 24px;&quot;&gt;RESPONSE FORMATTING&lt;/font&gt;" style="text;whiteSpace=wrap;html=1;rotation=0;" parent="1" vertex="1">
          <mxGeometry x="440" y="180" width="310" height="40" as="geometry" />
        </mxCell>
        <mxCell id="DwnvcKN-tC0KNOS77lnr-27" value="&lt;font style=&quot;font-size: 36px;&quot;&gt;Parse Query&lt;/font&gt;" style="text;whiteSpace=wrap;html=1;rotation=0;" parent="1" vertex="1">
          <mxGeometry x="1283.08" y="320" width="216.92" height="40" as="geometry" />
        </mxCell>
        <mxCell id="DwnvcKN-tC0KNOS77lnr-31" value="&lt;font style=&quot;font-size: 36px;&quot;&gt;JSON Formatted&lt;/font&gt;" style="text;whiteSpace=wrap;html=1;rotation=0;" parent="1" vertex="1">
          <mxGeometry x="1000" y="270" width="280" height="40" as="geometry" />
        </mxCell>
        <mxCell id="DwnvcKN-tC0KNOS77lnr-34" value="&lt;font style=&quot;font-size: 36px;&quot;&gt;USER&lt;/font&gt;" style="text;whiteSpace=wrap;html=1;rotation=0;" parent="1" vertex="1">
          <mxGeometry x="-430" y="420" width="110" height="40" as="geometry" />
        </mxCell>
        <mxCell id="DwnvcKN-tC0KNOS77lnr-37" value="&lt;font style=&quot;font-size: 36px;&quot;&gt;QUERY&lt;/font&gt;" style="text;whiteSpace=wrap;html=1;rotation=0;" parent="1" vertex="1">
          <mxGeometry x="-40" y="340" width="110" height="40" as="geometry" />
        </mxCell>
        <mxCell id="DwnvcKN-tC0KNOS77lnr-41" value="&lt;font style=&quot;font-size: 36px;&quot;&gt;RESULTS&lt;/font&gt;" style="text;whiteSpace=wrap;html=1;rotation=0;" parent="1" vertex="1">
          <mxGeometry x="-250" y="270" width="110" height="40" as="geometry" />
        </mxCell>
        <mxCell id="DwnvcKN-tC0KNOS77lnr-44" value="&lt;img src=&quot;data:image/png;base64,iVBORw0KGgoAAAANSUhEUgAAAQMAAADCCAMAAAB6zFdcAAAA9lBMVEX///8AAAAuhlP+/v7MzMy+vr65ublqamoeHh7IyMjv7++1tbVwcHBERETj4+NiYmJFkGXw9fLz+PCOjo4vhFN6enqsy7cff04sh1Ha6d4cf0UpKSn//P//+v/7//709PR2dnYvhk6Dg4OmpqYZGRlLS0sxMTHc3NwREREme0+Ru5////uSkpKZmZmqqqrW1tZVVVU2NjYCCgAhJSFQlmw6jFwNhEpgpXvj7uXP5NZUlG+exa5AiWG128TG2cnJ185lo3+AtZjo+eyLsJm00buOvaCmz7h6q5LM8dh3tJDN59k6kWB9pYhnpX1KnXG2yrzb8uEnkFBCEo0gAAAJGUlEQVR4nO2dD1/aSBPH16zailYhTdllG4Kx7VmlPXvPA2lApAERr/ae5+7e/5u5mQ0gqH2KT7Nhg/PrR4tL/u13Z2Znd0NgjEQikUgkEolEIpFIOYjDP/sPaVg86wvmPPNDmlWjlLkMYDWrTxuZ61Wx7ICzZ9kz2DgiBgBBx4SCgNAM3r7MTB8mSD+wwiAABnsbG88b2R1wZ2IJL4vEABruOUbytEv7WWkGB+8nlrDq2i2nGYOstAXV336DlvAxu4OaVeYM0A622UeE8KYgyZIhBuxDgSAYYsBTCL8WIiYYYbCL7f9yYgnZHdqUjNkBZ0cIYYvZP4o0FQ/QCTSEbesRmGMwg7BrfcZo0A5AE3d4qgx04sleIYRNy53BHIP06IcTCDYnCkYZYL01hB2rkyWzdoBVRwjvd2x2B9N2ANpDSzizGIJhBjo5OJhCsBSDYV9gGgTOLb3dZLYmCrkwaCCE12dPmQFAwAn8t/uWJkvmGWAc4PwdQji2MyLkwECfhqMl/HKsw6RtIHJjUEIIL45tTJZyY8BK6A6vS/YhyI8BQPgN3aFkX0zIzw4YL71Ad9hn3LJ0KScG+lR8H93h3b5tMSFXBmwf3eFFw7L7E3JkoAPj6xTCU2Wgg4AOjO8yPF8mypEB/hxjYPzUSNPH7E77c8rPF1AAAd3hgFs0u5ZnPNDng8CIK/OfrCGAypsBQJhZQnanfYw4DyoLCp5t/Ovf+5UM5AZYp610WeX754ean/0CG+1pBqvAEPi1XnlB3snJSTkLtascKGzNLS3pCvPJWJHPplA4P0N3eLaqGXfu3yjpzcvxMpKqsgmD7R+0LwRGnGI8XFHCGPCakI4RAYPJ/UhvSvs/UGkHLeGwsZKBg2EGgWbw/PUP9dt7vfZiEwNdJO++IaEoFbzw8O3bLWSY7hPOM2BpTFxaW/kD+D4DD2v7EBWJwSPdZPoi1YnnaTi3ZRgPisvAc0L8hSRuyxBL6IQh1tPT7Y5A5hh5d6ikDM4OXy2lowO7GDhCOeVWq+VJJaZFYahEu9wq9+DNEA1eREqpOV+QKooitegLwSPGADt2MRCfRzXMcuJO9bOY+ITontdiXdg/7XpK9i76/f5Fd7YvFnz5ctHz7jJYtruzhoH0Qke1aqyJl+6zIGDxJUS/ULVvIKOcTYTHiVJf8EVVTR1GDeBgrBbdjQdLyxYG4N8yGjA/4HVdV+4HvtuWnmoN60Hg6z18Di8GobrGbsyd7RzdwLH4tboNigVl4HhSXAZ1sIGgVj0/71R83x+2pfxW84Og3rwZnVcvahWwhVMh2zFaeTKNi60K8Irno2hRGUjZbUCDB+6lhIgnelcuq5Q9cQqtXx8mAsqUk4xddiWk0CnQSKQM1DmmvGPlFZ6BF6o+eoL7WUd8iPXtjtuTooZcwM51miBV9/evwKAL4YK7mCp54C0xmEGQqLnIWlQGsgw1AVOf1UWefG2HXgWCpJtE2EVgqwudB4gajomABgbNFhiFfyOc4jNwJFg9uHV7zjkgM/KgkTkfCaETJZ1EYpZ0hSbTFxhJoz/BWxBd8X1Bij6EfdaP5noKMHZxw4O63+wn3xylUjIIou363He7WG0ZQzQAr5lLlQvLwKlhz3d169ba3SEmcixnPB6dthROOOD4SfU5NP4VGIJK8Fj9+YhYXAaei8E+WcwcPdkGNBAAdYLgV8ZtFSKv6I+mz5uYFqkL2I3/Ry3sVlwGnN1jABD+G4O/N5uQNGFkGF5LXXoCKUIQwNbtmDX9oXDWgoHzEAP4S7Wr+A5WGfPESiLQH6Jz7A2qSg4gi6xDcrAWDDC2cciEF1sU6hsp7/rP2hBcASj47EbgJlEXHIRVBCQVAQ9a4VowcFSHQQ3H6NjTCnlSdwOehJGx17q8CbC+QQ93CkUHR1JJ2YXCTrSIoKAMIN0bY3C70Wm/nBLwJvNDns4cL6Htod5Y7ogBhtDxJQ6fLiNPrgEDqGyCHu4ms8mRUJQdr12WIc6hSb1JzCE2YsjAAkwRhtBr8EpZOuvBIBRDBolAB6raTsdC13+Vw9bwVEWT/Ed6MWe8WXY0AzVqQo/JJ3nVOjBwgMElzhqwL70Iw4CSI1bp/d2qsHgAYVE5SuqVkyAW6fyqA3bjY2fBYJS1Fr6AEn2sFYurSZJcV2MOgwfZcpnfjEeDP5LktNOEbjAYRJNGFzFk0QGv14TjrEVM1KbQg1hfhw4ycF3sCeuVnuxV6oGeFvRxGon7QRVnDfRu0TkkDC73z+8kSIVmAOOmMdTU9+vwgxuMvPDbXxD44a+gCYL/TsVscOR1kQ8L2vcQFJqBp1qjYXr1bu28B00uRbfacZsMp4qCeOyI27UUKUZDdxj3T9aKARh5qNrd69PBICk7ERDAHCES5e7Xr1DUcoReUJl1ns63NvQhf68Vg6k5LKygpE0ulLrv9t9V8Rn8vIgBMSgcg9lVz92Q8xg9sMf0Xpzm8leyMgaQFneiWzsIp3ochPvCY0RjnGteWquzA846J4sVxiZ8ION5vEQV0szlr2SFvuA33VtVKpWmvj/R/Unp+xMrfkEY1O/eJpHZfao4/VqEePCAMr5Xd2nZwyDze7aXFjEgBihiQAxQxIAYoIgBMUARA2KAIgbEAEUMiAGKGBADlL0MTH7gcPFjPhYz4Oz4cM+IjorDoHHwmE8oPkYfWVEYpE9FNqHtwtgB49u7RrTJCsIgPxEDYoCyl4HhxxFQPFgQMSAGKGLwZBksBFx7GWAm98Mn+/x/ahQlT4Sr/GhqvLBZkL6Rp0+DNqLijBv5zgszelcqCgP9y4gYKwiD/EQMiAGKGBADFDEgBijLGRjLD+ZlLwOzD/ecP7bNDNjx3oERHTV4MfJEuExja21vCpIrA4NXphjsFoUBXKehtbadosyh5CdiYD2DJ54f5CfLGZAd5CRiQAxQxIAYoIgBMUARA2KAIgbEAEUMiAGKGBADFDEgBihiQAxQxIAYoIiBTQzSZ8Y1VnDeTWsYaDt4u7udu7Y+2MVgZbKFwR4xYMZuO1lC/+OL4XPV8c7mqrRTWsn3O9/XKi+CW8OAG1poXmYt+v569Eq0MgB8Rd95/6BWdx22ECCRSCQSiUQikdZK/wA5/0m+CwqiLgAAAABJRU5ErkJggg==&quot; alt=&quot;Free Vectors | CSV file icon (mark)&quot;&gt;" style="text;whiteSpace=wrap;html=1;" parent="1" vertex="1">
          <mxGeometry x="630" y="560" width="30" height="40" as="geometry" />
        </mxCell>
        <mxCell id="DwnvcKN-tC0KNOS77lnr-49" value="" style="endArrow=classic;html=1;rounded=0;" parent="1" source="DwnvcKN-tC0KNOS77lnr-15" edge="1">
          <mxGeometry relative="1" as="geometry">
            <mxPoint x="640" y="340" as="sourcePoint" />
            <mxPoint x="740" y="340" as="targetPoint" />
          </mxGeometry>
        </mxCell>
        <mxCell id="DwnvcKN-tC0KNOS77lnr-51" value="" style="endArrow=classic;html=1;rounded=0;" parent="1" edge="1">
          <mxGeometry width="50" height="50" relative="1" as="geometry">
            <mxPoint x="730" y="560" as="sourcePoint" />
            <mxPoint x="730" y="400" as="targetPoint" />
          </mxGeometry>
        </mxCell>
        <mxCell id="DwnvcKN-tC0KNOS77lnr-52" value="" style="endArrow=classic;html=1;rounded=0;" parent="1" target="DwnvcKN-tC0KNOS77lnr-15" edge="1">
          <mxGeometry relative="1" as="geometry">
            <mxPoint x="640" y="340" as="sourcePoint" />
            <mxPoint x="740" y="340" as="targetPoint" />
          </mxGeometry>
        </mxCell>
        <mxCell id="DwnvcKN-tC0KNOS77lnr-15" value="" style="rounded=0;whiteSpace=wrap;html=1;fillColor=none;" parent="1" vertex="1">
          <mxGeometry x="70" y="220" width="900" height="550" as="geometry" />
        </mxCell>
      </root>
    </mxGraphModel>
  </diagram>
</mxfile>
